<svg width="126" height="126" viewBox="0 0 126 126" fill="none" xmlns="http://www.w3.org/2000/svg">
<path d="M24.5194 22.9965L10.4019 10.3381C10.1061 10.0728 9.63857 10.1084 9.39888 10.4302C6.53975 14.2426 7.31563 19.9571 11.3042 23.5334C15.2927 27.1097 21.0565 27.2614 24.5368 24.0036C24.8294 23.7292 24.8152 23.2617 24.5194 22.9965Z" fill="white"/>
<path d="M97.6105 109.398L111.728 122.056C112.024 122.322 112.491 122.286 112.731 121.964C115.59 118.152 114.814 112.437 110.826 108.861C106.837 105.285 101.073 105.133 97.5931 108.391C97.3005 108.665 97.3147 109.133 97.6105 109.398Z" fill="white"/>
<path d="M113.539 47.5559L98.8575 35.5569C98.5499 35.3055 98.0844 35.3623 97.8597 35.6949C95.178 39.6341 96.2146 45.3071 100.363 48.6971C104.511 52.0871 110.275 51.9748 113.603 48.5612C113.883 48.2737 113.847 47.8073 113.539 47.5559Z" fill="white"/>
<path d="M18.2983 89.2987L31.6526 75.8375C31.9324 75.5555 31.9205 75.0867 31.6111 74.8311C27.9478 71.7833 22.2015 72.27 18.4286 76.0731C14.6556 79.8763 14.2135 85.625 17.2916 89.2652C17.5509 89.5713 18.0185 89.5807 18.2983 89.2987Z" fill="white"/>
<path d="M15.4577 58.6614C12.6737 58.9571 9.93613 54.6696 9.34303 49.085C8.74993 43.5004 10.5259 38.7335 13.3099 38.4378C16.0938 38.1421 18.8314 42.4297 19.4245 48.0143C20.0176 53.5989 18.2416 58.3658 15.4577 58.6614Z" fill="white"/>
<path d="M108.286 68.2906C111.069 67.995 113.807 72.2825 114.4 77.8671C114.993 83.4517 113.217 88.2186 110.433 88.5143C107.649 88.8099 104.912 84.5224 104.319 78.9378C103.726 73.3532 105.502 68.5863 108.286 68.2906Z" fill="white"/>
<path d="M77.9277 15.4532C79.7381 16.7545 78.5484 21.5062 75.2704 26.0663C71.9925 30.6264 67.8676 33.2682 66.0573 31.9669C64.2469 30.6655 65.4366 25.9139 68.7145 21.3537C71.9924 16.7936 76.1173 14.1518 77.9277 15.4532Z" fill="white"/>
<path d="M50.9887 92.9476C48.7723 92.7062 47.4683 87.9846 48.0763 82.4016C48.6843 76.8186 50.9739 72.4884 53.1904 72.7297C55.4068 72.9711 56.7108 77.6927 56.1028 83.2757C55.4948 88.8587 53.2052 93.1889 50.9887 92.9476Z" fill="white"/>
<path fill-rule="evenodd" clip-rule="evenodd" d="M52.1648 45.3133C53.0922 46.6101 52.7919 48.4107 51.4941 49.335C48.5716 51.4165 44.6386 52.0345 40.9135 50.8242C37.1884 49.6138 34.3704 46.8017 33.2294 43.4008C32.7226 41.8902 33.5379 40.2569 35.0503 39.7528C36.5628 39.2486 38.1997 40.0645 38.7066 41.575C39.245 43.1799 40.6497 44.6759 42.6952 45.3406C44.7414 46.0054 46.7571 45.6208 48.1356 44.6389C49.4335 43.7146 51.2374 44.0165 52.1648 45.3133Z" fill="white"/>
<path fill-rule="evenodd" clip-rule="evenodd" d="M73.2884 80.7996C72.361 79.5028 72.6612 77.7022 73.959 76.7779C76.8816 74.6964 80.8146 74.0784 84.5396 75.2887C88.2647 76.4991 91.0827 79.3112 92.2237 82.7121C92.7305 84.2227 91.9153 85.856 90.4028 86.3601C88.8903 86.8643 87.2534 86.0484 86.7466 84.5379C86.2082 82.933 84.8034 81.437 82.7579 80.7723C80.7117 80.1075 78.696 80.4922 77.3175 81.474C76.0197 82.3983 74.2158 82.0964 73.2884 80.7996Z" fill="white"/>
<path fill-rule="evenodd" clip-rule="evenodd" d="M102.136 12.6122C101.881 11.0384 102.95 9.5586 104.523 9.30697C108.066 8.74031 111.865 9.93371 114.664 12.6728C117.464 15.4119 118.74 19.1831 118.251 22.7369C118.034 24.3154 116.578 25.4165 114.999 25.1964C113.42 24.9762 112.316 23.5181 112.533 21.9396C112.764 20.2627 112.17 18.2983 110.632 16.7942C109.094 15.2896 107.117 14.7388 105.446 15.0061C103.873 15.2578 102.391 14.186 102.136 12.6122Z" fill="white"/>
<path fill-rule="evenodd" clip-rule="evenodd" d="M57.349 113.026C58.4763 114.154 58.4749 115.979 57.3459 117.104C54.8037 119.636 51.025 120.889 47.152 120.305C43.279 119.721 40.0386 117.408 38.3561 114.24C37.6088 112.833 38.1456 111.088 39.5551 110.343C40.9646 109.598 42.713 110.135 43.4603 111.542C44.2543 113.037 45.885 114.283 48.0117 114.604C50.1392 114.925 52.0647 114.215 53.2639 113.021C54.3928 111.897 56.2218 111.899 57.349 113.026Z" fill="white"/>
<path d="M40.3618 14.979C39.6102 13.8585 39.9093 12.341 41.0298 11.5894L52.8985 3.62881C54.019 2.87727 55.5366 3.17636 56.2881 4.29685L58.6355 7.79659C59.387 8.91708 59.0879 10.4347 57.9674 11.1862L46.0987 19.1468C44.9782 19.8984 43.4607 19.5993 42.7091 18.4788L40.3618 14.979Z" fill="white"/>
<path d="M67.1788 101.745C66.891 100.427 67.7263 99.1253 69.0444 98.8376L83.0067 95.7893C84.3248 95.5015 85.6267 96.3368 85.9144 97.6549L86.8133 101.772C87.1011 103.09 86.2658 104.392 84.9477 104.68L70.9854 107.728C69.6673 108.016 68.3654 107.181 68.0776 105.862L67.1788 101.745Z" fill="white"/>
<path d="M81.2484 62.5707C80.2415 63.4688 78.6972 63.3806 77.7991 62.3738L68.2862 51.7089C67.3881 50.702 67.4762 49.1578 68.4831 48.2597L71.6278 45.4546C72.6347 44.5565 74.179 44.6446 75.0771 45.6515L84.59 56.3164C85.4881 57.3232 85.4 58.8675 84.3931 59.7656L81.2484 62.5707Z" fill="white"/>
<path d="M14.8291 99.779C16.1588 99.5507 17.4219 100.444 17.6501 101.773L20.068 115.858C20.2962 117.188 19.4033 118.451 18.0736 118.679L13.9203 119.392C12.5905 119.621 11.3275 118.728 11.0993 117.398L8.6814 103.313C8.45313 101.983 9.34606 100.72 10.6758 100.492L14.8291 99.779Z" fill="white"/>
</svg>
