<svg width="24" height="24" viewBox="0 0 24 24" fill="none" xmlns="http://www.w3.org/2000/svg">
<path d="M21.13 13.5783C21.7262 8.56022 20.8436 5.39218 19.2517 3.95928L19.2525 3.95845C16.6831 1.51144 8.00575 1.14926 4.93179 4.06835C3.55134 5.49626 3.06511 7.59191 3.01182 10.1863C2.95853 12.7815 2.89526 17.643 7.42543 18.9619H7.42959L7.42543 20.9759C7.42543 20.9759 7.39462 21.7919 7.91583 21.9559C8.51197 22.1491 8.78173 21.7702 10.6359 19.5555C13.7365 19.8245 16.1178 19.2083 16.3884 19.1184C17.0145 18.9086 20.5572 18.4398 21.13 13.5783ZM10.9415 18.1384C10.9415 18.1384 8.97906 20.5854 8.36876 21.2207C8.16894 21.4272 7.94997 21.4081 7.9533 20.9984C7.9533 20.7295 7.96828 17.6547 7.96828 17.6547C4.1275 16.554 4.35397 12.4143 4.3956 10.2487C4.43723 8.08231 4.83355 6.30804 6.00252 5.11326C8.6993 2.58466 16.3068 3.14999 18.2451 4.97172C20.6146 7.07237 19.7712 13.0071 19.7762 13.2095C19.2891 17.2675 16.4183 17.5248 15.8905 17.7005C15.6648 17.7754 13.5708 18.3141 10.9415 18.1384Z" fill="#8E24AA"/>
<path d="M12.0275 5.58887C11.707 5.58887 11.707 6.08843 12.0275 6.09259C14.5145 6.11174 16.5627 7.84521 16.5852 11.0249C16.5852 11.3604 17.0764 11.3563 17.0722 11.0207H17.0714C17.0448 7.5946 14.8084 5.60802 12.0275 5.58887Z" fill="#8E24AA"/>
<path d="M15.2985 10.4979C15.291 10.8292 15.7814 10.8451 15.7856 10.5095C15.8264 8.62035 14.6616 7.06422 12.4727 6.9002C12.1521 6.87689 12.1188 7.38061 12.4385 7.40392C14.3369 7.54796 15.3368 8.84348 15.2985 10.4979Z" fill="#8E24AA"/>
<path d="M14.7734 12.6469C14.3621 12.4087 13.9433 12.5569 13.7701 12.7909L13.4079 13.2597C13.2239 13.4978 12.8801 13.4661 12.8801 13.4661C10.3706 12.8026 9.69953 10.1765 9.69953 10.1765C9.69953 10.1765 9.66872 9.82102 9.89852 9.63035L10.3515 9.25568C10.5779 9.07584 10.7211 8.64289 10.4905 8.21743C9.87437 7.10425 9.46057 6.72042 9.24993 6.42568C9.02845 6.14842 8.69541 6.08598 8.34905 6.27331H8.34156C7.62136 6.69461 6.83289 7.48308 7.08517 8.29486C7.51562 9.15077 8.30659 11.8792 10.8277 13.9407C12.0125 14.9157 13.8875 15.9148 14.6835 16.1454L14.691 16.1571C15.4753 16.4185 16.2379 15.5993 16.6451 14.8574V14.8516C16.8257 14.4927 16.7658 14.153 16.5019 13.9307C16.0339 13.4745 15.3279 12.9707 14.7734 12.6469Z" fill="#8E24AA"/>
<path d="M12.8147 8.75816C13.6149 8.80479 14.0029 9.22275 14.0445 10.0812C14.0595 10.4167 14.5465 10.3934 14.5316 10.0578C14.4783 8.93717 13.8938 8.31272 12.8414 8.25444C12.5208 8.23529 12.4909 8.73901 12.8147 8.75816Z" fill="#8E24AA"/>
</svg>
