<svg width="24" height="24" viewBox="0 0 24 24" fill="none" xmlns="http://www.w3.org/2000/svg">
<path d="M2 22L3.72 16.8403C2.84724 15.3724 2.34483 13.6593 2.34483 11.8276C2.34483 6.4 6.74483 2 12.1724 2C17.6 2 22 6.4 22 11.8276C22 17.2552 17.6 21.6552 12.1724 21.6552C10.521 21.6552 8.96586 21.2459 7.6 20.5266L2 22Z" fill="#2CB742"/>
<path d="M18.4431 15.0986C17.9893 14.241 16.3159 13.2604 16.3159 13.2604C15.9372 13.0445 15.4803 13.0204 15.2645 13.4052C15.2645 13.4052 14.7207 14.0573 14.5824 14.151C13.9507 14.579 13.3655 14.5624 12.7748 13.9717L11.4021 12.599L10.0293 11.2262C9.43862 10.6355 9.42207 10.0504 9.85 9.41863C9.94379 9.28036 10.5959 8.73656 10.5959 8.73656C10.9807 8.52036 10.9566 8.06381 10.7407 7.68518C10.7407 7.68518 9.76 6.01174 8.90241 5.55794C8.53759 5.36484 8.08966 5.43243 7.79793 5.72415L7.19172 6.33036C5.26862 8.25346 6.21552 10.4245 8.13862 12.3476L9.89621 14.1052L11.6538 15.8628C13.5769 17.7859 15.7479 18.7328 17.671 16.8097L18.2772 16.2035C18.569 15.911 18.6362 15.4631 18.4431 15.0986Z" fill="white"/>
</svg>
