<svg width="24" height="24" viewBox="0 0 24 24" fill="none" xmlns="http://www.w3.org/2000/svg">
<path fill-rule="evenodd" clip-rule="evenodd" d="M19.8252 5.43695C20.6819 5.67232 21.3574 6.36129 21.5879 7.23535C22.0164 8.83186 21.9999 12.1597 21.9999 12.1597C21.9999 12.1597 21.9999 15.4705 21.5881 17.0672C21.3574 17.9411 20.682 18.6302 19.8252 18.8654C18.2602 19.2857 12 19.2857 12 19.2857C12 19.2857 5.75609 19.2857 4.17467 18.8488C3.3179 18.6134 2.64254 17.9243 2.41183 17.0504C2 15.4705 2 12.1429 2 12.1429C2 12.1429 2 8.83186 2.41183 7.23535C2.64239 6.36145 3.33438 5.65551 4.17452 5.4203C5.73961 5 11.9998 5 11.9998 5C11.9998 5 18.2602 5 19.8252 5.43695ZM15.4692 12.1433L10.1631 15.2045V9.08203L15.4692 12.1433Z" fill="#FF0000"/>
</svg>
